<svg width="32" height="32" viewBox="0 0 32 32" fill="none" xmlns="http://www.w3.org/2000/svg">
  <circle cx="16" cy="16" r="15.5" fill="#E6FFFA"/> <circle cx="16" cy="16" r="15" stroke="#B2F5EA" stroke-width="1"/> <g> <path d="M18 7H7C6.44772 7 6 7.44772 6 8V14C6 14.5523 6.44772 15 7 15H9V17L12 15H18C18.5523 15 19 14.5523 19 14V8C19 7.44772 18.5523 7 18 7Z" fill="#4FD1C5"/> <text x="12.5" y="11.5" font-family="Arial, sans-serif" font-size="6" fill="#FFFFFF" text-anchor="middle" dominant-baseline="middle">тЭдя╕П</text>
  </g>

  <g transform="translate(5, 6)"> <path d="M18 11H7C6.44772 11 6 11.4477 6 12V18C6 18.5523 6.44772 19 7 19H9V21L12 19H18C18.5523 19 19 18.5523 19 18V12C19 11.4477 18.5523 11 18 11Z" fill="#A78BFA"/> <text x="12.5" y="16" font-family="Arial, sans-serif" font-size="6" fill="#FFFFFF" text-anchor="middle" dominant-baseline="middle">ЁЯдЧ</text>
  </g>
</svg>
